<svg width="24" height="24" viewBox="0 0 24 24" fill="none" xmlns="http://www.w3.org/2000/svg">
<path d="M12 24C5.4 24 0 18.6 0 12C0 5.4 5.4 0 12 0C18.6 0 24 5.4 24 12C24 18.6 18.6 24 12 24Z" fill="#F3BA2F"/>
<path d="M9.1918 10.8358L11.9998 8.02781L14.8078 10.8358L16.4158 9.22781L11.9998 4.7998L7.5718 9.22781L9.1918 10.8358ZM4.7998 11.9998L6.4078 10.3918L8.0278 11.9998L6.4198 13.6078L4.7998 11.9998ZM9.1918 13.1638L11.9998 15.9718L14.8078 13.1638L16.4158 14.7718L11.9998 19.1998L7.5718 14.7718L9.1918 13.1638ZM15.9358 11.9998L17.5438 10.3918L19.1518 11.9998L17.5438 13.6078L15.9358 11.9998Z" fill="white"/>
<path d="M13.656 12.0002L12 10.3442L10.764 11.5922L10.62 11.7362L10.356 12.0002L12.012 13.6562L13.656 12.0002Z" fill="white"/>
</svg>
