<svg width="24" height="24" viewBox="0 0 24 24" fill="none" xmlns="http://www.w3.org/2000/svg">
<g clip-path="url(#clip0)">
<path d="M12 24C5.4 24 0 18.6 0 12C0 5.4 5.4 0 12 0C18.6 0 24 5.4 24 12C24 18.6 18.6 24 12 24ZM12 0.375C5.5875 0.375 0.375 5.5875 0.375 12C0.375 18.4125 5.5875 23.625 12 23.625C18.4125 23.625 23.625 18.4125 23.625 12C23.625 5.5875 18.4125 0.375 12 0.375Z" fill="#D1D3D4"/>
<path d="M12 0.375C5.5875 0.375 0.375 5.5875 0.375 12C0.375 18.4125 5.5875 23.625 12 23.625C18.4125 23.625 23.625 18.4125 23.625 12C23.625 5.5875 18.4125 0.375 12 0.375Z" fill="white"/>
<path d="M12.0002 4.7998L11.8877 5.1373V14.6623L12.0002 14.7373L16.4252 12.1498L12.0002 4.7998Z" fill="#343434"/>
<path d="M12.0002 4.7998L7.5752 12.1498L12.0002 14.7373V10.1248V4.7998Z" fill="#8C8C8C"/>
<path d="M11.9999 15.6001L11.9624 15.6376V19.0501L11.9999 19.2001L16.4249 12.9751L11.9999 15.6001Z" fill="#3C3C3B"/>
<path d="M12.0002 19.2001V15.6001L7.5752 12.9751L12.0002 19.2001Z" fill="#8C8C8C"/>
<path d="M12 14.7375L16.425 12.15L12 10.125V14.7375Z" fill="#141414"/>
<path d="M7.5752 12.15L12.0002 14.7375V10.125L7.5752 12.15Z" fill="#393939"/>
</g>
<defs>
<clipPath id="clip0">
<rect width="24" height="24" fill="white"/>
</clipPath>
</defs>
</svg>
