<svg width="289" height="56" viewBox="0 0 289 56" fill="none" xmlns="http://www.w3.org/2000/svg">
<path d="M132.329 23.6188C131.569 24.9521 130.048 26.095 128.337 26.095C125.865 26.095 123.964 24.1902 123.964 21.714C123.964 21.1426 124.154 20.5712 124.344 19.9998C118.64 19.9998 113.887 24.7617 113.887 30.4759C113.887 36.1902 118.64 40.9521 124.344 40.9521C130.048 40.9521 134.801 36.1902 134.801 30.4759C134.801 27.8093 133.85 25.3331 132.329 23.6188Z" fill="#60B583"/>
<path d="M15.2105 0H6.27441V9.14285H15.2105V0Z" fill="white"/>
<path d="M15.2103 21.3334H18.6326V14.6667H15.2103H6.27424V42.4762H0V49.1429H6.27424H15.2103H21.4845V42.4762H15.2103V21.3334Z" fill="white"/>
<path d="M44.8706 14.0955C40.1174 14.0955 36.5049 16.3812 34.6036 20.3812V14.8574H26.0479V49.3335H34.7938V29.7145C34.7938 24.5716 37.2654 21.905 41.4483 21.905C45.6311 21.905 47.5324 24.5716 47.5324 28.7621V49.1431H56.2783V26.4764C56.2783 19.0478 51.9053 14.0955 44.8706 14.0955Z" fill="white"/>
<path d="M77.5723 21.9045C73.3895 21.9045 70.9178 24.5712 70.9178 29.7141V49.1426H62.1719V14.6664H70.7277V20.1903C72.6289 16.3807 76.2414 13.9045 80.9946 13.9045C88.2195 13.9045 92.4023 18.8569 92.4023 26.2855V48.9521H83.6564V28.7617C83.6564 24.7617 81.7551 21.9045 77.5723 21.9045Z" fill="white"/>
<path d="M152.673 14.6667H162.56L170.355 40.381L178.151 14.6667H187.657L175.679 49.1429H164.651L152.673 14.6667Z" fill="white"/>
<path d="M254.012 31.9998C254.012 42.2855 247.167 50.2855 235.569 50.2855C223.971 50.2855 217.127 42.2855 217.127 31.9998C217.127 21.7141 223.971 13.7141 235.569 13.7141C247.167 13.7141 254.012 21.7141 254.012 31.9998ZM225.873 31.9998C225.873 37.7141 229.105 42.6665 235.379 42.6665C241.653 42.6665 244.886 37.7141 244.886 31.9998C244.886 26.2855 241.653 21.3332 235.379 21.3332C229.295 21.3332 225.873 26.2855 225.873 31.9998Z" fill="white"/>
<path d="M273.785 21.9045C269.603 21.9045 267.131 24.5712 267.131 29.7141V49.1426H258.385V14.6664H266.941V20.1903C268.842 16.3807 272.455 13.9045 277.208 13.9045C284.433 13.9045 288.615 18.8569 288.615 26.2855V48.9521H279.87V28.7617C279.679 24.7617 277.778 21.9045 273.785 21.9045Z" fill="white"/>
<path d="M212.754 42.4762H206.48V14.6667H194.121V21.3334H197.544V42.4762H191.27V49.1429H197.544H206.48H212.754V42.4762Z" fill="white"/>
<path d="M206.48 0H197.544V9.14285H206.48V0Z" fill="white"/>
<path d="M124.154 47.238C115.218 47.238 108.183 39.9999 108.183 31.238C108.183 27.0476 109.894 23.0476 112.746 20.1904H102.099C100.388 23.619 99.437 27.4285 99.437 31.238C99.437 44.9523 110.655 55.9999 124.154 55.9999H148.87V47.238H124.154Z" fill="white"/>
<path d="M140.125 30.476C140.125 34.6665 138.604 38.476 135.752 41.5236H146.399C148.11 38.095 149.061 34.2855 149.061 30.476C149.061 17.1427 138.413 6.09506 125.104 5.71411H99.0569V14.476H124.154C133.09 14.476 140.125 21.7141 140.125 30.476Z" fill="white"/>
</svg>
