<?xml version="1.0" encoding="UTF-8"?>
<!DOCTYPE svg PUBLIC "-//W3C//DTD SVG 1.1//EN" "http://www.w3.org/Graphics/SVG/1.1/DTD/svg11.dtd">
<!-- Creator: CorelDRAW 2021 (64-Bit) -->
<svg xmlns="http://www.w3.org/2000/svg" xml:space="preserve" width="159.255mm" height="14.6352mm" version="1.1" style="shape-rendering:geometricPrecision; text-rendering:geometricPrecision; image-rendering:optimizeQuality; fill-rule:evenodd; clip-rule:evenodd"
viewBox="0 0 3666.2 336.92"
 xmlns:xlink="http://www.w3.org/1999/xlink"
 xmlns:xodm="http://www.corel.com/coreldraw/odm/2003">
 <defs>
  <style type="text/css">
   <![CDATA[
    .fil0 {fill:white;fill-rule:nonzero}
    .fil1 {fill:url(#id0);fill-rule:nonzero}
   ]]>
  </style>
  <linearGradient id="id0" gradientUnits="userSpaceOnUse" x1="1735.42" y1="74.51" x2="2003.76" y2="336.84">
   <stop offset="0" style="stop-opacity:1; stop-color:#0079A2"/>
   <stop offset="1" style="stop-opacity:1; stop-color:#FE3F01"/>
  </linearGradient>
 </defs>
 <g id="Layer_x0020_1">
  <metadata id="CorelCorpID_0Corel-Layer"/>
  <g id="_2168166945600">
   <g>
    <g>
     <path class="fil0" d="M74.67 20.8c-3.29,-6.43 -8.01,-11.45 -14.14,-15.19 -6.21,-3.67 -12.87,-5.54 -19.98,-5.54l-40.55 0 133.18 257.31 22.89 -44.74c5.84,-11.22 5.84,-22.6 0,-34.12l-81.4 -157.72z"/>
    </g>
    <g>
     <path class="fil0" d="M350.08 2.54c-4.41,1.57 -8.38,4.04 -11.97,7.18 -3.59,3.22 -6.36,6.88 -8.31,11.07l-162.43 313.65 -0.97 2.39 63.9 0 172.68 -334.3 0.97 -2.39 -40.03 0c-4.86,0 -9.5,0.82 -13.84,2.39z"/>
    </g>
    <g>
     <path class="fil0" d="M821.53 22.74c-26.19,-15.04 -54.69,-22.6 -85.59,-22.6 -23.12,0 -45.19,4.42 -66.37,13.24 -21.17,8.83 -39.28,20.8 -54.39,35.84 -15.11,15.11 -27.23,33.07 -36.36,53.87 -9.13,20.88 -13.69,42.65 -13.69,65.39 0,30.45 7.63,58.59 22.89,84.4 15.26,25.81 35.99,46.24 62.18,61.35 26.19,15.11 54.69,22.6 85.59,22.6 30.9,0 59.41,-7.56 85.59,-22.6 26.19,-15.04 46.91,-35.54 62.17,-61.35 15.26,-25.81 22.97,-53.94 22.97,-84.4 0,-30.45 -7.63,-58.58 -22.97,-84.4 -15.11,-25.81 -35.84,-46.31 -62.03,-61.35zm29.03 145.75c0,31.13 -11.22,57.69 -33.67,79.83 -22.45,22.15 -49.46,33.22 -80.96,33.22 -31.58,0 -58.59,-11.07 -80.96,-33.22 -22.45,-22.15 -33.67,-48.71 -33.67,-79.83 0,-31.12 11.22,-57.69 33.67,-79.83 22.45,-22.15 49.46,-33.22 80.96,-33.22 31.57,0 58.51,11.08 80.96,33.22 22.45,22.07 33.67,48.71 33.67,79.83z"/>
    </g>
    <g>
     <path class="fil0" d="M1391.36 13.09l-145.45 141.19c-2.92,2.84 -4.56,6.73 -4.56,10.77l0.22 171.71 30.23 0c7.48,0 13.92,-2.62 19.3,-7.93 5.39,-5.24 8.01,-11.6 8.01,-19l0 -119.41c0,-7.56 3.07,-14.89 8.6,-20.2l175.83 -170.14 -60 0c-12.65,0.07 -23.42,4.41 -32.17,13.02z"/>
    </g>
    <g>
     <path class="fil0" d="M1116.69 0.15l-59.48 0 127.42 123.23 1.87 1.87 1.42 -1.35 37.63 -36.66 -76.09 -74.07c-9.2,-8.68 -20.13,-13.02 -32.77,-13.02z"/>
    </g>
   </g>
   <g>
    <g>
     <path class="fil0" d="M2510.45 183.38c-3.59,1.57 -6.66,3.59 -9.28,5.99 -2.62,2.39 -4.64,5.39 -6.06,8.9 -1.5,3.52 -2.17,7.18 -2.17,11.07l0 72.13 -130.26 0c-31.57,0 -58.51,-11.07 -80.96,-33.22 -22.45,-22.15 -33.67,-48.71 -33.67,-79.83 0,-31.13 11.23,-57.69 33.67,-79.83 22.45,-22.15 49.46,-33.22 80.96,-33.22l139.02 0c8.15,0 14.96,-2.77 20.5,-8.46 5.54,-5.61 8.31,-12.27 8.31,-19.98l0 -26.93 -7.33 0c-79.39,0 -130.79,0 -154.21,0l-6.36 0c-30.9,0 -59.41,7.56 -85.59,22.6 -26.19,15.04 -46.91,35.54 -62.17,61.35 -15.26,25.81 -22.97,53.94 -22.97,84.4 0,45.57 15.94,84.55 47.81,117.09 31.87,32.55 70.93,49.61 117.09,51.25l4.42 0 1.5 0 1.5 0c12.05,0 57.39,0 136.1,0l50.28 0 0 -155.7 -28.81 0c-3.97,0 -7.71,0.82 -11.3,2.39z"/>
    </g>
    <g>
     <path class="fil0" d="M3077.59 47.06c5.54,-5.61 8.3,-12.27 8.3,-19.98l0 -26.94 -285.81 0c-18.63,0 -33.74,14.89 -33.74,33.3l0 22 290.75 0c8.15,0 14.96,-2.77 20.5,-8.38z"/>
    </g>
    <g>
     <path class="fil0" d="M3076.39 285.37c-4.42,-2.54 -9.2,-3.82 -14.37,-3.82l-238.75 0c0.07,-2.17 0.15,-4.26 0.15,-6.51 0.3,-12.57 0.45,-25.74 0.45,-39.51l0 -39.58 204.93 0c3.89,0 7.63,-0.75 11.22,-2.17 3.59,-1.42 6.58,-3.44 9.05,-5.99 2.47,-2.54 4.49,-5.61 6.06,-9.13 1.65,-3.52 2.47,-7.18 2.47,-11.07l0 -26.49 -233.66 0 -57.61 0 0 54.84 0 85.59 0 4.19c0,28.28 23.19,51.18 51.85,51.18 0.07,0 0.15,-0.15 0.22,-0.22 1.35,0.07 2.62,0.22 3.97,0.22l268.3 0 0 -26.93c0,-5.16 -1.27,-9.88 -3.89,-14.22 -2.54,-4.42 -5.99,-7.86 -10.4,-10.4z"/>
    </g>
    <g>
     <path class="fil0" d="M3591.08 191.54c20.2,-6.73 36.66,-18.71 49.53,-35.84 12.87,-17.13 19.3,-36.29 19.3,-57.46 0,-27.23 -9.65,-50.43 -29.03,-69.51 -19.38,-19.08 -42.87,-28.66 -70.48,-28.66 -1.27,0 -2.24,0 -2.92,0l-224.46 0 0 26.49c0,5.16 1.27,9.95 3.89,14.44 2.62,4.49 6.06,8 10.47,10.55 4.42,2.54 9.35,3.82 14.89,3.82l198.05 0c7.78,0 15.04,1.95 21.7,5.76 6.66,3.82 11.97,9.05 15.86,15.64 3.89,6.58 5.84,13.69 5.84,21.4 0,11.52 -4.27,21.47 -12.72,29.85 -8.46,8.31 -18.71,12.5 -30.75,12.5l-227.38 0.45 0 195.73 28.81 0c7.78,0 14.59,-2.77 20.28,-8.46 5.69,-5.61 8.53,-12.42 8.53,-20.43l0 -111.93 139.02 0 62.47 121.21c2.92,6.06 7.33,10.92 13.17,14.44 5.84,3.52 12.2,5.31 19,5.31l42.05 0 -75.12 -145.3z"/>
    </g>
   </g>
   <g>
    <path class="fil1" d="M1824.49 0.15l-44.97 0c-3.44,0 -6.58,1.87 -8.15,4.94l-170.59 329.36 -0.97 2.39 39.88 0c11.6,0 22.82,-3.97 31.72,-11.3l126.97 -103.85c2.02,-1.65 4.86,-1.65 6.81,0l125.55 103.7c8.9,7.41 20.2,11.45 31.87,11.45l41.15 0 -171.11 -331.75c-1.57,-3.07 -4.71,-4.94 -8.16,-4.94z"/>
   </g>
  </g>
 </g>
</svg>
